<svg width="17" height="14" viewBox="0 0 17 14" fill="none" xmlns="http://www.w3.org/2000/svg">
<g id="Group">
<path id="Vector" d="M16.402 11.9L9.90201 0.700001C9.63543 0.266697 9.1854 0 8.68537 0C8.18534 0 7.73531 0.266694 7.46873 0.700001L0.968715 11.9C0.718762 12.3333 0.718762 12.8667 0.968715 13.3C1.21867 13.7333 1.66872 14 2.18535 14H15.2187C15.7187 14 16.1854 13.7333 16.4354 13.3C16.6854 12.8667 16.6687 12.3333 16.4021 11.9H16.402ZM8.68534 3.53334C9.25198 3.53334 9.71865 4.01662 9.6854 4.58337L9.48544 8.45005C9.46881 8.88335 9.11877 9.21678 8.68546 9.21678C8.25216 9.21678 7.90213 8.88347 7.88549 8.45005L7.68529 4.58337C7.65204 3.99998 8.11869 3.53334 8.68536 3.53334H8.68534ZM8.68534 12.05C8.10194 12.05 7.63531 11.5834 7.63531 11C7.63531 10.4166 8.10197 9.94996 8.68534 9.94996C9.2687 9.94996 9.73537 10.4166 9.73537 11C9.73537 11.5834 9.2687 12.05 8.68534 12.05Z" fill="#AE0D0D"/>
</g>
</svg>
