<svg width="18" height="18" viewBox="0 0 18 18" fill="none" xmlns="http://www.w3.org/2000/svg">
<g id="Frame" clip-path="url(#clip0_887_1430)">
<g id="Icon">
<path id="Path 49" d="M8.10043 15.778C7.79123 16.0905 7.42304 16.3385 7.01722 16.5076C6.61141 16.6767 6.17606 16.7635 5.73643 16.763H5.68743C4.77835 16.7452 3.91217 16.3731 3.27343 15.726C2.95285 15.4186 2.69598 15.051 2.51746 14.6443C2.33894 14.2376 2.24228 13.7998 2.23299 13.3557C2.2237 12.9117 2.30198 12.4701 2.46334 12.0563C2.6247 11.6425 2.86599 11.2646 3.17343 10.944L3.22143 10.895L12.1124 2C12.5265 1.56968 13.0841 1.30635 13.6794 1.26C13.9588 1.23253 14.2407 1.26863 14.5041 1.36561C14.7675 1.4626 15.0056 1.61794 15.2004 1.82C15.41 2.01199 15.5702 2.25163 15.6675 2.51866C15.7648 2.78568 15.7963 3.07221 15.7594 3.354C15.6526 3.92238 15.3765 4.44522 14.9674 4.854L9.03743 10.774C8.65543 11.156 8.29643 11.432 7.88743 11.024C7.47843 10.616 7.79943 10.239 8.15043 9.889L12.9874 5.059C13.055 4.99157 13.0936 4.90039 13.0949 4.80493C13.0962 4.70946 13.0601 4.61726 12.9944 4.548L12.6574 4.189C12.6244 4.15385 12.5848 4.12556 12.5408 4.10573C12.4969 4.0859 12.4494 4.07493 12.4012 4.07345C12.353 4.07196 12.305 4.07999 12.2599 4.09707C12.2148 4.11415 12.1735 4.13995 12.1384 4.173L12.1294 4.181L7.15043 9.172C6.95325 9.33987 6.79426 9.54797 6.68412 9.78233C6.57398 10.0167 6.51523 10.2719 6.51182 10.5308C6.50841 10.7898 6.56042 11.0464 6.66435 11.2836C6.76829 11.5208 6.92174 11.733 7.11443 11.906C8.44543 13.236 9.95643 11.606 9.95643 11.606L15.8504 5.733C16.193 5.44093 16.4721 5.08186 16.6707 4.67789C16.8693 4.27392 16.9832 3.83359 17.0053 3.38398C17.0274 2.93437 16.9573 2.48499 16.7993 2.06349C16.6412 1.64199 16.3987 1.25727 16.0864 0.933002C15.7885 0.62923 15.4316 0.389721 15.0375 0.229253C14.6435 0.0687856 14.2208 -0.00923627 13.7954 1.81072e-06C13.3154 0.00712687 12.8414 0.109234 12.401 0.300433C11.9606 0.491631 11.5624 0.768138 11.2294 1.114L2.38043 9.95C1.94247 10.388 1.59506 10.9079 1.35804 11.4801C1.12102 12.0523 0.999023 12.6656 0.999023 13.285C0.999023 13.9044 1.12102 14.5177 1.35804 15.0899C1.59506 15.6621 1.94247 16.182 2.38043 16.62C2.81838 17.058 3.33832 17.4054 3.91054 17.6424C4.48276 17.8794 5.09606 18.0014 5.71543 18.0014C6.33479 18.0014 6.94809 17.8794 7.52031 17.6424C8.09254 17.4054 8.61247 17.058 9.05043 16.62L16.7504 8.92C16.8192 8.85118 16.8579 8.75783 16.8579 8.6605C16.8579 8.56317 16.8192 8.46983 16.7504 8.401L16.3754 8.026C16.3066 7.95718 16.2133 7.91852 16.1159 7.91852C16.0186 7.91852 15.9253 7.95718 15.8564 8.026L8.10043 15.778Z" fill="white"/>
</g>
</g>
<defs>
<clipPath id="clip0_887_1430">
<rect width="18" height="18.002" fill="white" transform="translate(0 -0.000976562)"/>
</clipPath>
</defs>
</svg>
