<svg width="18" height="18" viewBox="0 0 18 18" fill="none" xmlns="http://www.w3.org/2000/svg">
<g id="info">
<path id="Vector" fill-rule="evenodd" clip-rule="evenodd" d="M9 0C13.9706 0 18 4.02943 18 9C18 13.9706 13.9706 18 9 18C4.02943 18 0 13.9706 0 9C0 4.02943 4.02943 0 9 0ZM8.92956 3.29336C10.7946 3.29336 12.5022 4.69659 12.5022 6.62946C12.5022 7.94858 11.6842 9.08161 10.5015 9.6229C9.9843 9.8597 9.68309 10.3348 9.68309 10.9027V11.7005H8.17601V10.9027C8.17601 9.74404 8.82439 8.7391 9.87694 8.2567C10.5198 7.96226 10.9953 7.35368 10.9953 6.62946C10.9953 5.5243 9.96659 4.8006 8.92959 4.8006C7.9539 4.8006 7.25566 5.30396 6.90913 6.20335L5.49722 5.70314C6.01163 4.21026 7.35675 3.29355 8.92976 3.29355L8.92956 3.29336ZM8.92956 12.5402C9.52758 12.5402 10.0127 13.0254 10.0127 13.6234C10.0127 14.2214 9.52758 14.7066 8.92956 14.7066C8.33154 14.7066 7.84638 14.2214 7.84638 13.6234C7.84638 13.0254 8.33154 12.5402 8.92956 12.5402Z" fill="#336AD3"/>
</g>
</svg>
